<svg xmlns="http://www.w3.org/2000/svg" viewBox="0 0 24 24" fill="#1DB954">
  <title>Spotify</title>
  <path d="M12 0C5.372 0 0 5.373 0 12s5.372 12 12 12 12-5.373 12-12S18.628 0 12 0zm5.19 17.29a.75.75 0 0 1-1.03.25c-2.83-1.73-6.39-2.12-10.58-1.16a.75.75 0 1 1-.33-1.46c4.58-1.04 8.53-.59 11.72 1.34.36.22.47.69.22 1.03zm1.47-3.26a.94.94 0 0 1-1.29.31c-3.24-1.99-8.18-2.57-12.02-1.41a.94.94 0 0 1-.55-1.8c4.4-1.34 9.86-.69 13.55 1.59.45.28.59.86.31 1.31zm.13-3.39C14.96 8.37 7.9 8.1 4.26 9.2a1.13 1.13 0 0 1-.65-2.17c4.2-1.27 11.9-.98 16.39 1.72a1.13 1.13 0 0 1-1.17 1.9z"/>
</svg>